<svg width="40" height="40" viewBox="0 0 40 40" fill="none" xmlns="http://www.w3.org/2000/svg">
<path d="M2.49996 6.66666C2.49996 4.36547 4.36544 2.49999 6.66663 2.49999H33.3333C35.6345 2.49999 37.5 4.36547 37.5 6.66666V33.3333C37.5 35.6345 35.6345 37.5 33.3333 37.5H6.66663C4.36544 37.5 2.49996 35.6345 2.49996 33.3333V6.66666Z" fill="#0095DA" stroke="white" stroke-width="1.66667"/>
<path d="M16.8164 27.6667H13.7989V19.4049C13.7989 19.1771 13.8021 18.8971 13.8086 18.5651C13.8151 18.2266 13.8249 17.8815 13.8379 17.5299C13.851 17.1719 13.864 16.8496 13.877 16.5631C13.8054 16.6478 13.6589 16.7943 13.4375 17.0026C13.2227 17.2044 13.0209 17.3867 12.8321 17.5495L11.1914 18.8678L9.73637 17.0514L14.336 13.3893H16.8164V27.6667ZM30.7032 20.528C30.7032 21.6803 30.612 22.709 30.4297 23.6139C30.2539 24.5189 29.9675 25.2871 29.5704 25.9186C29.1797 26.5501 28.6654 27.0319 28.0274 27.3639C27.3894 27.696 26.6146 27.862 25.7032 27.862C24.5573 27.862 23.6166 27.5723 22.8809 26.9928C22.1452 26.4069 21.6016 25.567 21.25 24.4733C20.8985 23.373 20.7227 22.0579 20.7227 20.528C20.7227 18.985 20.8822 17.6667 21.2012 16.5729C21.5267 15.4726 22.0541 14.6295 22.7832 14.0436C23.5124 13.4577 24.4857 13.1647 25.7032 13.1647C26.8425 13.1647 27.78 13.4577 28.5157 14.0436C29.2579 14.623 29.808 15.4629 30.1661 16.5631C30.5241 17.6569 30.7032 18.9785 30.7032 20.528ZM23.7207 20.528C23.7207 21.6152 23.7793 22.5234 23.8965 23.2526C24.0202 23.9753 24.2253 24.5189 24.5118 24.8835C24.7982 25.248 25.1954 25.4303 25.7032 25.4303C26.2045 25.4303 26.5983 25.2513 26.8848 24.8932C27.1778 24.5286 27.3861 23.985 27.5098 23.2624C27.6335 22.5332 27.6954 21.6217 27.6954 20.528C27.6954 19.4407 27.6335 18.5325 27.5098 17.8034C27.3861 17.0742 27.1778 16.5273 26.8848 16.1628C26.5983 15.7917 26.2045 15.6061 25.7032 15.6061C25.1954 15.6061 24.7982 15.7917 24.5118 16.1628C24.2253 16.5273 24.0202 17.0742 23.8965 17.8034C23.7793 18.5325 23.7207 19.4407 23.7207 20.528Z" fill="white"/>
</svg>
