<svg width="40" height="40" viewBox="0 0 40 40" fill="none" xmlns="http://www.w3.org/2000/svg">
<path d="M2.49996 6.66666C2.49996 4.36547 4.36544 2.49999 6.66663 2.49999H33.3333C35.6345 2.49999 37.5 4.36547 37.5 6.66666V33.3333C37.5 35.6345 35.6345 37.5 33.3333 37.5H6.66663C4.36544 37.5 2.49996 35.6345 2.49996 33.3333V6.66666Z" fill="#FFCB05" stroke="white" stroke-width="1.66667"/>
<path d="M16.8164 27.6667H13.7989V19.4049C13.7989 19.1771 13.8021 18.8971 13.8086 18.5651C13.8151 18.2266 13.8249 17.8815 13.8379 17.5299C13.851 17.1719 13.864 16.8496 13.877 16.5631C13.8054 16.6478 13.6589 16.7943 13.4375 17.0026C13.2227 17.2044 13.0209 17.3867 12.8321 17.5495L11.1914 18.8678L9.73637 17.0514L14.336 13.3893H16.8164V27.6667ZM30.7813 27.6667H20.8008V25.567L24.3848 21.944C25.1075 21.2018 25.6869 20.5833 26.1231 20.0885C26.5658 19.5872 26.8848 19.1315 27.0801 18.7213C27.2819 18.3112 27.3829 17.8717 27.3829 17.403C27.3829 16.8366 27.2233 16.4134 26.9043 16.1335C26.5918 15.847 26.1719 15.7038 25.6446 15.7038C25.0912 15.7038 24.5541 15.8307 24.0332 16.0846C23.5124 16.3385 22.9688 16.6999 22.4024 17.1686L20.7618 15.2253C21.1719 14.8737 21.6049 14.5417 22.0606 14.2292C22.5228 13.9167 23.0567 13.666 23.6621 13.4772C24.2741 13.2819 25.0066 13.1842 25.8594 13.1842C26.7969 13.1842 27.601 13.3535 28.2715 13.692C28.9486 14.0306 29.4694 14.4928 29.834 15.0788C30.1986 15.6582 30.3809 16.3157 30.3809 17.0514C30.3809 17.8392 30.2246 18.5586 29.9121 19.2096C29.5996 19.8607 29.1439 20.5052 28.545 21.1432C27.9525 21.7812 27.2364 22.4876 26.3965 23.2624L24.5606 24.9909V25.1276H30.7813V27.6667Z" fill="white"/>
</svg>
