<svg width="40" height="40" viewBox="0 0 40 40" fill="none" xmlns="http://www.w3.org/2000/svg">
<path d="M2.49996 6.66666C2.49996 4.36547 4.36544 2.49999 6.66663 2.49999H33.3333C35.6345 2.49999 37.5 4.36547 37.5 6.66666V33.3333C37.5 35.6345 35.6345 37.5 33.3333 37.5H6.66663C4.36544 37.5 2.49996 35.6345 2.49996 33.3333V6.66666Z" fill="#F58220" stroke="white" stroke-width="1.66667"/>
<path d="M16.8164 27.6667H13.7989V19.4049C13.7989 19.1771 13.8021 18.8971 13.8086 18.5651C13.8151 18.2266 13.8249 17.8815 13.8379 17.5299C13.851 17.1719 13.864 16.8496 13.877 16.5631C13.8054 16.6478 13.6589 16.7943 13.4375 17.0026C13.2227 17.2044 13.0209 17.3867 12.8321 17.5495L11.1914 18.8678L9.73637 17.0514L14.336 13.3893H16.8164V27.6667ZM31.1036 24.7077H29.3848V27.6667H26.4356V24.7077H20.3418V22.6081L26.6016 13.3893H29.3848V22.3639H31.1036V24.7077ZM26.4356 22.3639V19.942C26.4356 19.7142 26.4388 19.444 26.4454 19.1315C26.4584 18.819 26.4714 18.5065 26.4844 18.194C26.4974 17.8815 26.5105 17.6048 26.5235 17.3639C26.543 17.1165 26.556 16.944 26.5625 16.8463H26.4844C26.3607 17.1133 26.2305 17.3737 26.0938 17.6276C25.9571 17.875 25.7976 18.1354 25.6153 18.4088L22.9981 22.3639H26.4356Z" fill="white"/>
</svg>
