<svg width="40" height="40" viewBox="0 0 40 40" fill="none" xmlns="http://www.w3.org/2000/svg">
<path d="M2.49996 6.66666C2.49996 4.36547 4.36544 2.49999 6.66663 2.49999H33.3333C35.6345 2.49999 37.5 4.36547 37.5 6.66666V33.3333C37.5 35.6345 35.6345 37.5 33.3333 37.5H6.66663C4.36544 37.5 2.49996 35.6345 2.49996 33.3333V6.66666Z" fill="#EB1D1B" stroke="white" stroke-width="1.66667"/>
<path d="M16.8164 27.6667H13.7989V19.4049C13.7989 19.1771 13.8021 18.8971 13.8086 18.5651C13.8151 18.2266 13.8249 17.8815 13.8379 17.5299C13.851 17.1719 13.864 16.8496 13.877 16.5631C13.8054 16.6478 13.6589 16.7943 13.4375 17.0026C13.2227 17.2044 13.0209 17.3867 12.8321 17.5495L11.1914 18.8678L9.73637 17.0514L14.336 13.3893H16.8164V27.6667ZM20.7032 21.6022C20.7032 20.7819 20.7618 19.9713 20.8789 19.1706C21.0026 18.3633 21.2142 17.6048 21.5137 16.8952C21.8132 16.179 22.2331 15.5475 22.7735 15.0006C23.3138 14.4473 24.0007 14.0143 24.834 13.7018C25.6674 13.3828 26.6765 13.2233 27.8614 13.2233C28.1413 13.2233 28.4668 13.2363 28.8379 13.2624C29.2155 13.2819 29.528 13.3177 29.7754 13.3698V15.7819C29.515 15.7233 29.2351 15.6777 28.9356 15.6452C28.6426 15.6061 28.3496 15.5866 28.0567 15.5866C26.8718 15.5866 25.9538 15.7754 25.3028 16.153C24.6582 16.5306 24.2025 17.0547 23.9356 17.7253C23.6752 18.3893 23.5222 19.1641 23.4766 20.0495H23.6036C23.7858 19.7305 24.0137 19.4473 24.2871 19.1999C24.5671 18.9525 24.9056 18.7572 25.3028 18.6139C25.6999 18.4642 26.1654 18.3893 26.6993 18.3893C27.5326 18.3893 28.2552 18.5683 28.8672 18.9264C29.4792 19.278 29.9512 19.7891 30.2832 20.4596C30.6153 21.1302 30.7813 21.9473 30.7813 22.9108C30.7813 23.9394 30.5827 24.8249 30.1856 25.567C29.7885 26.3092 29.2253 26.8789 28.4961 27.276C27.7735 27.6667 26.9141 27.862 25.918 27.862C25.1888 27.862 24.5085 27.7383 23.877 27.4909C23.2455 27.237 22.6921 26.8529 22.2168 26.3385C21.7416 25.8242 21.3705 25.1764 21.1036 24.3952C20.8366 23.6074 20.7032 22.6764 20.7032 21.6022ZM25.8594 25.4499C26.4519 25.4499 26.9336 25.248 27.3047 24.8444C27.6758 24.4407 27.8614 23.8092 27.8614 22.9499C27.8614 22.2532 27.6986 21.7064 27.3731 21.3092C27.0541 20.9056 26.5691 20.7038 25.918 20.7038C25.4753 20.7038 25.0847 20.8047 24.7461 21.0065C24.4141 21.2018 24.1569 21.4525 23.9746 21.7585C23.7924 22.0579 23.7012 22.3672 23.7012 22.6862C23.7012 23.0182 23.7468 23.347 23.8379 23.6725C23.9291 23.998 24.0658 24.2943 24.2481 24.5612C24.4304 24.8281 24.655 25.043 24.9219 25.2057C25.1954 25.3685 25.5079 25.4499 25.8594 25.4499Z" fill="white"/>
</svg>
