<svg width="40" height="40" viewBox="0 0 40 40" fill="none" xmlns="http://www.w3.org/2000/svg">
<path d="M2.49996 6.66666C2.49996 4.36547 4.36544 2.49999 6.66663 2.49999H33.3333C35.6345 2.49999 37.5 4.36547 37.5 6.66666V33.3333C37.5 35.6345 35.6345 37.5 33.3333 37.5H6.66663C4.36544 37.5 2.49996 35.6345 2.49996 33.3333V6.66666Z" fill="black" stroke="white" stroke-width="1.66667"/>
<path d="M16.8164 27.6667H13.7989V19.4049C13.7989 19.1771 13.8021 18.8971 13.8086 18.5651C13.8151 18.2266 13.8249 17.8815 13.8379 17.5299C13.851 17.1719 13.864 16.8496 13.877 16.5631C13.8054 16.6478 13.6589 16.7943 13.4375 17.0026C13.2227 17.2044 13.0209 17.3867 12.8321 17.5495L11.1914 18.8678L9.73637 17.0514L14.336 13.3893H16.8164V27.6667ZM25.7227 13.2038C26.543 13.2038 27.2982 13.3307 27.9883 13.5846C28.6849 13.8385 29.2416 14.2226 29.6582 14.737C30.0749 15.2448 30.2832 15.8828 30.2832 16.651C30.2832 17.2239 30.1693 17.7253 29.9414 18.1549C29.7201 18.5846 29.4174 18.9622 29.0332 19.2878C28.6491 19.6068 28.2129 19.8867 27.7246 20.1276C28.2325 20.3945 28.7142 20.707 29.17 21.0651C29.6257 21.4167 29.9968 21.8301 30.2832 22.3053C30.5762 22.7806 30.7227 23.334 30.7227 23.9655C30.7227 24.7598 30.5111 25.4499 30.0879 26.0358C29.6648 26.6152 29.0788 27.0644 28.3301 27.3835C27.5814 27.7025 26.7123 27.862 25.7227 27.862C24.655 27.862 23.7468 27.709 22.9981 27.403C22.2494 27.097 21.6797 26.6608 21.2891 26.0944C20.8985 25.5215 20.7032 24.8379 20.7032 24.0436C20.7032 23.3926 20.8236 22.8262 21.0645 22.3444C21.3119 21.8626 21.6439 21.4492 22.0606 21.1042C22.4773 20.7526 22.9362 20.4531 23.4375 20.2057C23.0144 19.9388 22.627 19.6361 22.2754 19.2975C21.9304 18.959 21.6537 18.5716 21.4454 18.1354C21.2435 17.6992 21.1426 17.1979 21.1426 16.6315C21.1426 15.8763 21.3542 15.2448 21.7774 14.737C22.2071 14.2292 22.7702 13.8483 23.4668 13.5944C24.1635 13.334 24.9154 13.2038 25.7227 13.2038ZM23.4961 23.8678C23.4961 24.3822 23.6784 24.8086 24.043 25.1471C24.4141 25.4792 24.961 25.6452 25.6836 25.6452C26.4323 25.6452 26.9922 25.4857 27.3633 25.1667C27.7344 24.8411 27.92 24.4147 27.92 23.8874C27.92 23.5228 27.8125 23.2038 27.5977 22.9303C27.3894 22.6569 27.1257 22.4128 26.8067 22.1979C26.4877 21.9766 26.1654 21.7715 25.8399 21.5827L25.5762 21.446C25.1595 21.6348 24.795 21.8463 24.4825 22.0807C24.1765 22.3151 23.9356 22.5788 23.7598 22.8717C23.584 23.1647 23.4961 23.4967 23.4961 23.8678ZM25.7032 15.4108C25.2084 15.4108 24.7982 15.5378 24.4727 15.7917C24.1472 16.0456 23.9844 16.4036 23.9844 16.8659C23.9844 17.1914 24.0625 17.4779 24.2188 17.7253C24.3816 17.9661 24.5931 18.1777 24.8536 18.36C25.1205 18.5423 25.4102 18.7116 25.7227 18.8678C26.0222 18.7246 26.3021 18.5651 26.5625 18.3893C26.823 18.2135 27.0345 18.0019 27.1973 17.7545C27.3601 17.5072 27.4414 17.2109 27.4414 16.8659C27.4414 16.4036 27.2754 16.0456 26.9434 15.7917C26.6179 15.5378 26.2045 15.4108 25.7032 15.4108Z" fill="white"/>
</svg>
