<svg width="40" height="40" viewBox="0 0 40 40" fill="none" xmlns="http://www.w3.org/2000/svg">
<path d="M2.49996 6.66668C2.49996 4.36549 4.36544 2.50001 6.66663 2.50001H33.3333C35.6345 2.50001 37.5 4.36549 37.5 6.66667V33.3333C37.5 35.6345 35.6345 37.5 33.3333 37.5H6.66663C4.36544 37.5 2.49996 35.6345 2.49996 33.3333V6.66668Z" fill="#0095DA" stroke="white" stroke-width="1.66667"/>
<path d="M12.9395 28L12.1973 24.5625H9.02344L8.28125 28H5.3418L8.79883 13.7227H12.3438L15.8594 28H12.9395ZM11.7773 22.1797L11.0059 18.4004C10.9538 18.0879 10.9017 17.7819 10.8496 17.4824C10.804 17.1829 10.7585 16.8965 10.7129 16.623C10.6738 16.3431 10.638 16.0827 10.6055 15.8418C10.5859 16.0697 10.5566 16.3203 10.5176 16.5938C10.4785 16.8672 10.4329 17.1536 10.3809 17.4531C10.3288 17.7526 10.2702 18.0553 10.2051 18.3613L9.44336 22.1797H11.7773ZM23.0273 28H20.3516V19.6602C20.3516 19.3607 20.3516 19.0677 20.3516 18.7812C20.3581 18.4883 20.3646 18.2018 20.3711 17.9219C20.3841 17.6354 20.3971 17.3555 20.4102 17.082C20.319 17.2057 20.2116 17.3457 20.0879 17.502C19.9642 17.6582 19.8177 17.8307 19.6484 18.0195L18.4082 19.2988L16.8066 17.7168L20.6445 13.7227H23.0273V28ZM33.8867 20.8613C33.8867 21.9421 33.8216 22.9316 33.6914 23.8301C33.5677 24.722 33.3561 25.4967 33.0566 26.1543C32.7572 26.8053 32.3535 27.3099 31.8457 27.668C31.3379 28.0195 30.7031 28.1953 29.9414 28.1953C29.082 28.1953 28.3594 27.9447 27.7734 27.4434C27.194 26.9421 26.7546 26.1543 26.4551 25.0801C26.1556 23.9993 26.0059 22.5931 26.0059 20.8613C26.0059 19.1882 26.1491 17.8112 26.4355 16.7305C26.722 15.6432 27.1549 14.8359 27.7344 14.3086C28.3203 13.7812 29.056 13.5176 29.9414 13.5176C30.8203 13.5176 31.5495 13.791 32.1289 14.3379C32.7148 14.8848 33.1543 15.7018 33.4473 16.7891C33.7402 17.8763 33.8867 19.2337 33.8867 20.8613ZM28.7012 20.8613C28.7012 21.9941 28.737 22.9284 28.8086 23.6641C28.8867 24.3932 29.0137 24.9368 29.1895 25.2949C29.3717 25.6465 29.6224 25.8223 29.9414 25.8223C30.2669 25.8223 30.5176 25.6465 30.6934 25.2949C30.8757 24.9368 31.0026 24.3932 31.0742 23.6641C31.1458 22.9284 31.1816 21.9941 31.1816 20.8613C31.1816 19.7611 31.1458 18.8431 31.0742 18.1074C31.0026 17.3717 30.8757 16.8216 30.6934 16.457C30.5176 16.0859 30.2669 15.9004 29.9414 15.9004C29.6289 15.9004 29.3815 16.0827 29.1992 16.4473C29.0169 16.8118 28.8867 17.362 28.8086 18.0977C28.737 18.8333 28.7012 19.7546 28.7012 20.8613Z" fill="white"/>
</svg>
