<svg width="40" height="40" viewBox="0 0 40 40" fill="none" xmlns="http://www.w3.org/2000/svg">
<path d="M2.49996 6.66668C2.49996 4.36549 4.36544 2.50001 6.66663 2.50001H33.3333C35.6345 2.50001 37.5 4.36549 37.5 6.66667V33.3333C37.5 35.6345 35.6345 37.5 33.3333 37.5H6.66663C4.36544 37.5 2.49996 35.6345 2.49996 33.3333V6.66668Z" fill="#FFCB05" stroke="white" stroke-width="1.66667"/>
<path d="M12.9395 28L12.1973 24.5625H9.02344L8.28125 28H5.3418L8.79883 13.7227H12.3438L15.8594 28H12.9395ZM11.7773 22.1797L11.0059 18.4004C10.9538 18.0879 10.9017 17.7819 10.8496 17.4824C10.804 17.1829 10.7585 16.8965 10.7129 16.623C10.6738 16.3431 10.638 16.0827 10.6055 15.8418C10.5859 16.0697 10.5566 16.3203 10.5176 16.5938C10.4785 16.8672 10.4329 17.1536 10.3809 17.4531C10.3288 17.7526 10.2702 18.0553 10.2051 18.3613L9.44336 22.1797H11.7773ZM23.0273 28H20.3516V19.6602C20.3516 19.3607 20.3516 19.0677 20.3516 18.7812C20.3581 18.4883 20.3646 18.2018 20.3711 17.9219C20.3841 17.6354 20.3971 17.3555 20.4102 17.082C20.319 17.2057 20.2116 17.3457 20.0879 17.502C19.9642 17.6582 19.8177 17.8307 19.6484 18.0195L18.4082 19.2988L16.8066 17.7168L20.6445 13.7227H23.0273V28ZM33.623 28H25.8398V26.0566L28.584 22.2383C29.1699 21.4245 29.6159 20.7507 29.9219 20.2168C30.2279 19.6764 30.4329 19.2012 30.5371 18.791C30.6478 18.3743 30.7031 17.9512 30.7031 17.5215C30.7031 17.0202 30.5827 16.623 30.3418 16.3301C30.1074 16.0306 29.7559 15.8809 29.2871 15.8809C28.916 15.8809 28.5645 15.9785 28.2324 16.1738C27.9004 16.3691 27.5293 16.7174 27.1191 17.2188L25.8008 15.4414C26.1979 14.9727 26.5885 14.5983 26.9727 14.3184C27.3633 14.0319 27.7734 13.8268 28.2031 13.7031C28.6328 13.5794 29.0983 13.5176 29.5996 13.5176C30.3548 13.5176 31.0189 13.6803 31.5918 14.0059C32.1647 14.3249 32.6107 14.7708 32.9297 15.3438C33.2487 15.9167 33.4082 16.5872 33.4082 17.3555C33.4082 17.987 33.3333 18.5892 33.1836 19.1621C33.0339 19.7285 32.7799 20.321 32.4219 20.9395C32.0638 21.5579 31.5723 22.2578 30.9473 23.0391L29.043 25.5391V25.6367H33.623V28Z" fill="white"/>
</svg>
