<svg width="40" height="40" viewBox="0 0 40 40" fill="none" xmlns="http://www.w3.org/2000/svg">
<path d="M2.49996 6.66668C2.49996 4.36549 4.36544 2.50001 6.66663 2.50001H33.3333C35.6345 2.50001 37.5 4.36549 37.5 6.66667V33.3333C37.5 35.6345 35.6345 37.5 33.3333 37.5H6.66663C4.36544 37.5 2.49996 35.6345 2.49996 33.3333V6.66668Z" fill="#F58220" stroke="white" stroke-width="1.66667"/>
<path d="M12.9395 28L12.1973 24.5625H9.02344L8.28125 28H5.3418L8.79883 13.7227H12.3438L15.8594 28H12.9395ZM11.7773 22.1797L11.0059 18.4004C10.9538 18.0879 10.9017 17.7819 10.8496 17.4824C10.804 17.1829 10.7585 16.8965 10.7129 16.623C10.6738 16.3431 10.638 16.0827 10.6055 15.8418C10.5859 16.0697 10.5566 16.3203 10.5176 16.5938C10.4785 16.8672 10.4329 17.1536 10.3809 17.4531C10.3288 17.7526 10.2702 18.0553 10.2051 18.3613L9.44336 22.1797H11.7773ZM23.0273 28H20.3516V19.6602C20.3516 19.3607 20.3516 19.0677 20.3516 18.7812C20.3581 18.4883 20.3646 18.2018 20.3711 17.9219C20.3841 17.6354 20.3971 17.3555 20.4102 17.082C20.319 17.2057 20.2116 17.3457 20.0879 17.502C19.9642 17.6582 19.8177 17.8307 19.6484 18.0195L18.4082 19.2988L16.8066 17.7168L20.6445 13.7227H23.0273V28ZM34.4043 25.0996H32.959V28H30.3223V25.0996H25.6055V22.9414L30.3027 13.6836H32.959V22.8828H34.4043V25.0996ZM30.3027 22.8828V19.582C30.3027 19.4844 30.3027 19.3314 30.3027 19.123C30.3092 18.9082 30.3158 18.6836 30.3223 18.4492C30.3288 18.2083 30.3353 17.9935 30.3418 17.8047C30.3483 17.6159 30.3548 17.4889 30.3613 17.4238H30.2832C30.1986 17.7103 30.1042 17.9805 30 18.2344C29.8958 18.4883 29.7852 18.7292 29.668 18.957L27.7832 22.8828H30.3027Z" fill="white"/>
</svg>
