<svg width="40" height="40" viewBox="0 0 40 40" fill="none" xmlns="http://www.w3.org/2000/svg">
<path d="M2.49996 6.66668C2.49996 4.36549 4.36544 2.50001 6.66663 2.50001H33.3333C35.6345 2.50001 37.5 4.36549 37.5 6.66667V33.3333C37.5 35.6345 35.6345 37.5 33.3333 37.5H6.66663C4.36544 37.5 2.49996 35.6345 2.49996 33.3333V6.66668Z" fill="#EB1D1B" stroke="white" stroke-width="1.66667"/>
<path d="M12.9395 28L12.1973 24.5625H9.02344L8.28125 28H5.3418L8.79883 13.7227H12.3438L15.8594 28H12.9395ZM11.7773 22.1797L11.0059 18.4004C10.9538 18.0879 10.9017 17.7819 10.8496 17.4824C10.804 17.1829 10.7585 16.8965 10.7129 16.623C10.6738 16.3431 10.638 16.0827 10.6055 15.8418C10.5859 16.0697 10.5566 16.3203 10.5176 16.5938C10.4785 16.8672 10.4329 17.1536 10.3809 17.4531C10.3288 17.7526 10.2702 18.0553 10.2051 18.3613L9.44336 22.1797H11.7773ZM23.0273 28H20.3516V19.6602C20.3516 19.3607 20.3516 19.0677 20.3516 18.7812C20.3581 18.4883 20.3646 18.2018 20.3711 17.9219C20.3841 17.6354 20.3971 17.3555 20.4102 17.082C20.319 17.2057 20.2116 17.3457 20.0879 17.502C19.9642 17.6582 19.8177 17.8307 19.6484 18.0195L18.4082 19.2988L16.8066 17.7168L20.6445 13.7227H23.0273V28ZM26.0059 21.9355C26.0059 20.998 26.0579 20.1094 26.1621 19.2695C26.2728 18.4232 26.4518 17.6517 26.6992 16.9551C26.9466 16.252 27.2786 15.6432 27.6953 15.1289C28.112 14.6146 28.6263 14.2174 29.2383 13.9375C29.8503 13.6576 30.5794 13.5176 31.4258 13.5176C31.7448 13.5176 32.0573 13.5339 32.3633 13.5664C32.6758 13.5924 32.9753 13.638 33.2617 13.7031V15.998C33.0143 15.9395 32.7539 15.8939 32.4805 15.8613C32.2135 15.8223 31.9336 15.8027 31.6406 15.8027C30.9766 15.8027 30.4199 15.9655 29.9707 16.291C29.5215 16.61 29.1764 17.1016 28.9355 17.7656C28.6947 18.4297 28.5579 19.276 28.5254 20.3047H28.6035C28.7533 19.9466 28.9355 19.6471 29.1504 19.4062C29.3652 19.1654 29.6126 18.9831 29.8926 18.8594C30.179 18.7292 30.4948 18.6641 30.8398 18.6641C31.5104 18.6641 32.0768 18.8561 32.5391 19.2402C33.0013 19.6243 33.3529 20.1615 33.5938 20.8516C33.8411 21.5352 33.9648 22.3392 33.9648 23.2637C33.9648 24.2402 33.8151 25.0996 33.5156 25.8418C33.2161 26.584 32.7799 27.1634 32.207 27.5801C31.6341 27.9902 30.9342 28.1953 30.1074 28.1953C29.4629 28.1953 28.8867 28.0553 28.3789 27.7754C27.8711 27.4954 27.4382 27.0885 27.0801 26.5547C26.7285 26.0143 26.4616 25.3568 26.2793 24.582C26.097 23.8073 26.0059 22.9251 26.0059 21.9355ZM30.0391 25.8613C30.4232 25.8613 30.7259 25.653 30.9473 25.2363C31.1686 24.8197 31.2793 24.1816 31.2793 23.3223C31.2793 22.541 31.1784 21.9518 30.9766 21.5547C30.7747 21.1576 30.472 20.959 30.0684 20.959C29.7884 20.959 29.5475 21.0501 29.3457 21.2324C29.1439 21.4082 28.9876 21.6458 28.877 21.9453C28.7728 22.2448 28.7207 22.5768 28.7207 22.9414C28.7207 23.306 28.7467 23.6608 28.7988 24.0059C28.8509 24.3509 28.9323 24.6634 29.043 24.9434C29.1536 25.2233 29.2904 25.4479 29.4531 25.6172C29.6224 25.7799 29.8177 25.8613 30.0391 25.8613Z" fill="white"/>
</svg>
