<svg width="40" height="40" viewBox="0 0 40 40" fill="none" xmlns="http://www.w3.org/2000/svg">
<path d="M2.50002 6.66668C2.50002 4.36549 4.3655 2.50001 6.66669 2.50001H33.3333C35.6345 2.50001 37.5 4.36549 37.5 6.66667V33.3333C37.5 35.6345 35.6345 37.5 33.3333 37.5H6.66669C4.3655 37.5 2.50002 35.6345 2.50002 33.3333V6.66668Z" fill="black" stroke="white" stroke-width="1.66667"/>
<path d="M12.9395 28L12.1973 24.5625H9.02344L8.28125 28H5.3418L8.79883 13.7227H12.3438L15.8594 28H12.9395ZM11.7773 22.1797L11.0059 18.4004C10.9538 18.0879 10.9017 17.7819 10.8496 17.4824C10.804 17.1829 10.7585 16.8965 10.7129 16.623C10.6738 16.3431 10.638 16.0827 10.6055 15.8418C10.5859 16.0697 10.5566 16.3203 10.5176 16.5938C10.4785 16.8672 10.4329 17.1536 10.3809 17.4531C10.3288 17.7526 10.2702 18.0553 10.2051 18.3613L9.44336 22.1797H11.7773ZM23.0273 28H20.3516V19.6602C20.3516 19.3607 20.3516 19.0677 20.3516 18.7812C20.3581 18.4883 20.3646 18.2018 20.3711 17.9219C20.3841 17.6354 20.3971 17.3555 20.4102 17.082C20.319 17.2057 20.2116 17.3457 20.0879 17.502C19.9642 17.6582 19.8177 17.8307 19.6484 18.0195L18.4082 19.2988L16.8066 17.7168L20.6445 13.7227H23.0273V28ZM29.9609 13.5176C30.7487 13.5176 31.416 13.6543 31.9629 13.9277C32.5163 14.2012 32.9362 14.5918 33.2227 15.0996C33.5156 15.6074 33.6621 16.2194 33.6621 16.9355C33.6621 17.4499 33.5872 17.9251 33.4375 18.3613C33.2943 18.791 33.0697 19.1849 32.7637 19.543C32.4642 19.8945 32.0768 20.2135 31.6016 20.5C32.1484 20.8776 32.5977 21.2585 32.9492 21.6426C33.3073 22.0267 33.571 22.4336 33.7402 22.8633C33.916 23.293 34.0039 23.765 34.0039 24.2793C34.0039 25.0866 33.8411 25.7832 33.5156 26.3691C33.1901 26.9551 32.7246 27.4076 32.1191 27.7266C31.5137 28.0391 30.7943 28.1953 29.9609 28.1953C29.0885 28.1953 28.3464 28.0423 27.7344 27.7363C27.1289 27.4303 26.6667 26.9909 26.3477 26.418C26.0352 25.8385 25.8789 25.1452 25.8789 24.3379C25.8789 23.8105 25.957 23.3223 26.1133 22.873C26.2695 22.4173 26.5104 21.9974 26.8359 21.6133C27.168 21.2227 27.5911 20.8646 28.1055 20.5391C27.6823 20.2005 27.3307 19.8424 27.0508 19.4648C26.7773 19.0872 26.5723 18.6901 26.4355 18.2734C26.3053 17.8503 26.2402 17.4043 26.2402 16.9355C26.2402 16.2194 26.39 15.6074 26.6895 15.0996C26.9954 14.5918 27.4251 14.2012 27.9785 13.9277C28.5384 13.6543 29.1992 13.5176 29.9609 13.5176ZM28.4668 24.2988C28.4668 24.8197 28.5905 25.2396 28.8379 25.5586C29.0853 25.8776 29.4466 26.0371 29.9219 26.0371C30.4362 26.0371 30.8171 25.8841 31.0645 25.5781C31.3184 25.2656 31.4453 24.8392 31.4453 24.2988C31.4453 24.0449 31.4062 23.7975 31.3281 23.5566C31.25 23.3092 31.1165 23.0651 30.9277 22.8242C30.7389 22.5768 30.4785 22.3229 30.1465 22.0625L29.8633 21.8379C29.5247 22.0853 29.2513 22.3359 29.043 22.5898C28.8411 22.8372 28.6947 23.1009 28.6035 23.3809C28.5124 23.6608 28.4668 23.9668 28.4668 24.2988ZM29.9609 15.6758C29.6159 15.6758 29.3359 15.8092 29.1211 16.0762C28.9062 16.3366 28.7988 16.6914 28.7988 17.1406C28.7988 17.4206 28.8411 17.6777 28.9258 17.9121C29.0104 18.1465 29.1374 18.3678 29.3066 18.5762C29.4759 18.7845 29.6875 18.9863 29.9414 19.1816C30.2409 18.9603 30.4785 18.7454 30.6543 18.5371C30.8301 18.3223 30.9538 18.1042 31.0254 17.8828C31.1035 17.6549 31.1426 17.4076 31.1426 17.1406C31.1426 16.6914 31.0319 16.3366 30.8105 16.0762C30.5957 15.8092 30.3125 15.6758 29.9609 15.6758Z" fill="white"/>
</svg>
