<svg width="40" height="40" viewBox="0 0 40 40" fill="none" xmlns="http://www.w3.org/2000/svg">
<path d="M2.49996 6.66668C2.49996 4.36549 4.36544 2.50001 6.66663 2.50001H33.3333C35.6345 2.50001 37.5 4.36549 37.5 6.66667V33.3333C37.5 35.6345 35.6345 37.5 33.3333 37.5H6.66663C4.36544 37.5 2.49996 35.6345 2.49996 33.3333V6.66668Z" fill="#00A651" stroke="white" stroke-width="1.66667"/>
<path d="M18.2715 28L17.5293 24.5625H14.3555L13.6133 28H10.6738L14.1309 13.7227H17.6758L21.1914 28H18.2715ZM17.1094 22.1797L16.3379 18.4004C16.2858 18.0879 16.2337 17.7819 16.1816 17.4824C16.1361 17.1829 16.0905 16.8965 16.0449 16.623C16.0059 16.3431 15.9701 16.0827 15.9375 15.8418C15.918 16.0697 15.8887 16.3203 15.8496 16.5938C15.8105 16.8672 15.765 17.1536 15.7129 17.4531C15.6608 17.7526 15.6022 18.0553 15.5371 18.3613L14.7754 22.1797H17.1094ZM22.4805 28V13.7227H25.2246V25.6172H29.0234V28H22.4805Z" fill="white"/>
</svg>
